<svg xmlns="http://www.w3.org/2000/svg" width="512" height="512" viewBox="0 0 512 512"><path d="M184 64a8 8 0 00-8 8v56a8 8 0 0016 0V72A8 8 0 00184 64zM184 144a8 8 0 00-8 8v8a8 8 0 0016 0v-8A8 8 0 00184 144zM24 216H48a8 8 0 008-8V112a8 8 0 00-8-8H24a8 8 0 00-8 8v96A8 8 0 0024 216zm8-96h8v80H32zM72 216H96a8 8 0 008-8V144a8 8 0 00-8-8H72a8 8 0 00-8 8v64A8 8 0 0072 216zm8-64h8v48H80zM140 276a8 8 0 005.657-13.657l-36-36A8 8 0 00104 224H48a8 8 0 000 16h52.687l33.656 33.657A7.976 7.976 0 00140 276zM487.6 88.4A56.01 56.01 0 10504 128 55.667 55.667 0 00487.6 88.4zm-67.88 67.88a40.016 40.016 0 01-5.1-50.34l23.72 23.72L423.9 159.93A39.865 39.865 0 01419.72 156.28zm56.56 0A39.711 39.711 0 01448 168a40.3 40.3 0 01-9.66-1.17L453.05 136H487.2A39.65 39.65 0 01476.28 156.28zM451.31 120L425.94 94.62A40.032 40.032 0 01487.2 120z"/><path d="M496 192H384a8.008 8.008 0 00-5.66 2.34L360 212.69V184a72.083 72.083 0 00-72-72H232V40a8 8 0 00-8-8V16a8 8 0 00-8-8H168a8 8 0 00-8 8V32a8 8 0 00-8 8V224a8 8 0 008 8h8v32a8 8 0 008 8h32a8 8 0 008-8V232h8a8 8 0 008-8V160h56a24.032 24.032 0 0124 24v76.69l-37.66 37.65a8 8 0 0011.32 11.32L312 283.31V408a24.032 24.032 0 01-24 24H240a24.032 24.032 0 01-24-24V344h40a8 8 0 008-8V312a8 8 0 00-8-8H128a8 8 0 00-8 8v24a8 8 0 008 8h40v64a71.91 71.91 0 0026.81 56H144a8 8 0 00-8 8v24a8 8 0 008 8H384a8 8 0 008-8V472a8 8 0 00-8-8H333.19A71.91 71.91 0 00360 408V235.31L387.31 208H496a8 8 0 000-16zM176 24h32v8H176zm24 232H184V232h16zm16-40H168V48h48zM136 328v-8H248v8zM376 480v8H152v-8zm-32-72a56.062 56.062 0 01-56 56H240a56.062 56.062 0 01-56-56V344h16v64a40.04 40.04 0 0040 40h48a40.04 40.04 0 0040-40V184a40.04 40.04 0 00-40-40H232V128h56a56.062 56.062 0 0156 56zM24 224H16a8 8 0 000 16h8a8 8 0 000-16z"/><path d="M496 216H432a8 8 0 000 16h64a8 8 0 000-16zM496 240H464a8 8 0 000 16h32a8 8 0 000-16z"/></svg>